<svg width="27" height="22" viewBox="0 0 27 22" fill="none" xmlns="http://www.w3.org/2000/svg">
<path d="M25.3195 7.10433C25.0115 7.02033 24.6872 7.20233 24.6032 7.51383L24.5623 7.66666H2.43766L2.39566 7.51383C2.31166 7.20233 1.98966 7.02033 1.68049 7.10433C1.36899 7.18833 1.18583 7.50916 1.27099 7.8195L4.30199 18.9332C4.64733 20.2002 5.80349 21.0833 7.11599 21.0833H19.884C21.1965 21.0833 22.3527 20.2002 22.698 18.9343L25.729 7.82066C25.8142 7.50916 25.631 7.18833 25.3195 7.10433ZM7.82649 18.7278C7.77283 18.743 7.71916 18.75 7.66666 18.75C7.41349 18.75 7.18016 18.5832 7.10666 18.3265L4.77333 10.1598C4.68466 9.85066 4.86433 9.5275 5.17466 9.43883C5.48149 9.35483 5.80699 9.52983 5.89566 9.84016L8.22899 18.0068C8.31649 18.316 8.13683 18.6392 7.82649 18.7278ZM10.6662 18.7442C10.6382 18.7488 10.6102 18.75 10.5833 18.75C10.2975 18.75 10.0478 18.54 10.0058 18.2495L8.83916 10.0828C8.79366 9.76433 9.01533 9.468 9.33383 9.4225C9.65233 9.3735 9.94866 9.5975 9.99416 9.91716L11.1608 18.0838C11.2063 18.4035 10.9847 18.6987 10.6662 18.7442ZM14.0833 18.1667C14.0833 18.4887 13.822 18.75 13.5 18.75C13.178 18.75 12.9167 18.4887 12.9167 18.1667V10C12.9167 9.678 13.178 9.41666 13.5 9.41666C13.822 9.41666 14.0833 9.678 14.0833 10V18.1667ZM16.9942 18.2495C16.9522 18.5412 16.7025 18.75 16.4167 18.75C16.3898 18.75 16.3618 18.7488 16.3338 18.7442C16.0153 18.6987 15.7937 18.4035 15.8392 18.0838L17.0058 9.91716C17.0513 9.59866 17.3465 9.37816 17.6662 9.4225C17.9847 9.468 18.2063 9.76316 18.1608 10.0828L16.9942 18.2495ZM22.2278 10.1598L19.8945 18.3265C19.821 18.5832 19.5877 18.75 19.3333 18.75C19.2797 18.75 19.226 18.743 19.1723 18.7278C18.862 18.6392 18.6835 18.316 18.771 18.0068L21.1043 9.84016C21.193 9.52983 21.5197 9.35366 21.8253 9.43883C22.1368 9.5275 22.3165 9.85066 22.2278 10.1598Z" fill="#F53A21"/>
<path d="M26.3333 7.08333H25.7278C25.4735 3.75133 23.0538 1.0225 19.8781 0.286331C19.8945 0.412331 19.9166 0.535998 19.9166 0.666664C19.9166 0.952498 19.863 1.222 19.786 1.48333C22.3561 2.15883 24.3115 4.36733 24.5576 7.08333H2.44231C2.68848 4.36733 4.64381 2.15766 7.21398 1.48333C7.13698 1.222 7.08331 0.952498 7.08331 0.666664C7.08331 0.535998 7.10548 0.412331 7.12181 0.286331C3.94731 1.0225 1.52648 3.75133 1.27215 7.08333H0.666646C0.344646 7.08333 0.083313 7.34466 0.083313 7.66666C0.083313 7.98866 0.344646 8.25 0.666646 8.25H26.3333C26.6553 8.25 26.9166 7.98866 26.9166 7.66666C26.9166 7.34466 26.6553 7.08333 26.3333 7.08333Z" fill="#F53A21"/>
</svg>
